<?xml version="1.0" encoding="UTF-8" standalone="no"?>
<!-- Created with Inkscape (http://www.inkscape.org/) -->

<svg
   width="512"
   height="512"
   viewBox="0 0 512 512"
   version="1.1"
   id="svg1"
   inkscape:version="1.4.3 (0d15f75, 2025-12-25)"
   sodipodi:docname="BSSCTG-PLATFORM_CYAN.svg"
   xmlns:inkscape="http://www.inkscape.org/namespaces/inkscape"
   xmlns:sodipodi="http://sodipodi.sourceforge.net/DTD/sodipodi-0.dtd"
   xmlns="http://www.w3.org/2000/svg"
   xmlns:svg="http://www.w3.org/2000/svg">
  <sodipodi:namedview
     id="namedview1"
     pagecolor="#505050"
     bordercolor="#eeeeee"
     borderopacity="1"
     inkscape:showpageshadow="0"
     inkscape:pageopacity="0"
     inkscape:pagecheckerboard="0"
     inkscape:deskcolor="#505050"
     inkscape:document-units="px"
     inkscape:zoom="0.87244326"
     inkscape:cx="100.29306"
     inkscape:cy="277.38194"
     inkscape:window-width="1440"
     inkscape:window-height="890"
     inkscape:window-x="-6"
     inkscape:window-y="-6"
     inkscape:window-maximized="1"
     inkscape:current-layer="layer1" />
  <defs
     id="defs1">
    <filter
       inkscape:collect="always"
       style="color-interpolation-filters:sRGB"
       id="filter1"
       x="-0.091300078"
       y="-0.084012171"
       width="1.1826002"
       height="1.1680243">
      <feGaussianBlur
         inkscape:collect="always"
         stdDeviation="13.417367"
         id="feGaussianBlur1" />
    </filter>
    <inkscape:path-effect
       effect="fillet_chamfer"
       id="path-effect1"
       is_visible="true"
       lpeversion="1"
       nodesatellites_param="F,0,0,1,0,55,0,1 @ F,0,0,1,0,55,0,1 @ F,0,0,1,0,55,0,1 @ F,0,0,1,0,55,0,1"
       radius="55"
       unit="px"
       method="auto"
       mode="F"
       chamfer_steps="1"
       flexible="false"
       use_knot_distance="true"
       apply_no_radius="true"
       apply_with_radius="true"
       only_selected="false"
       hide_knots="false" />
    <inkscape:path-effect
       effect="fillet_chamfer"
       id="path-effect1-2"
       is_visible="true"
       lpeversion="1"
       nodesatellites_param="F,0,0,1,0,55,0,1 @ F,0,0,1,0,55,0,1 @ F,0,0,1,0,55,0,1 @ F,0,0,1,0,55,0,1"
       radius="55"
       unit="px"
       method="auto"
       mode="F"
       chamfer_steps="1"
       flexible="false"
       use_knot_distance="true"
       apply_no_radius="true"
       apply_with_radius="true"
       only_selected="false"
       hide_knots="false" />
    <inkscape:path-effect
       effect="fillet_chamfer"
       id="path-effect1-4"
       is_visible="true"
       lpeversion="1"
       nodesatellites_param="F,0,0,1,0,55,0,1 @ F,0,0,1,0,55,0,1 @ F,0,0,1,0,55,0,1 @ F,0,0,1,0,55,0,1"
       radius="55"
       unit="px"
       method="auto"
       mode="F"
       chamfer_steps="1"
       flexible="false"
       use_knot_distance="true"
       apply_no_radius="true"
       apply_with_radius="true"
       only_selected="false"
       hide_knots="false" />
  </defs>
  <g
     inkscape:label="Layer 1"
     inkscape:groupmode="layer"
     id="layer1">
    <path
       style="mix-blend-mode:normal;fill:#999999;fill-opacity:0;stroke:#05fdff;stroke-width:5.66587;stroke-linecap:round;stroke-linejoin:miter;stroke-miterlimit:100;stroke-dasharray:none;stroke-opacity:1;filter:url(#filter1)"
       id="rect1"
       width="383.73041"
       height="417.01834"
       x="96.233864"
       y="30.450581"
       inkscape:path-effect="#path-effect1"
       sodipodi:type="rect"
       d="m 151.23386,30.450581 h 273.73041 a 55,55 45 0 1 55,55 V 392.46892 a 55,55 135 0 1 -55,55 H 151.23386 a 55,55 45 0 1 -54.999996,-55 V 85.450581 a 55,55 135 0 1 54.999996,-55 z"
       transform="matrix(1.1130091,0,0,1.0125454,-64.656881,14.042413)" />
    <path
       style="fill:#999999;fill-opacity:0;stroke:#05fdff;stroke-width:5.66587;stroke-linecap:round;stroke-linejoin:miter;stroke-miterlimit:100;stroke-dasharray:none;stroke-opacity:1"
       id="rect1-1"
       width="383.73041"
       height="417.01834"
       x="96.233864"
       y="30.450581"
       inkscape:path-effect="#path-effect1-2"
       sodipodi:type="rect"
       d="m 151.23386,30.450581 h 273.73041 a 55,55 45 0 1 55,55 V 392.46892 a 55,55 135 0 1 -55,55 H 151.23386 a 55,55 45 0 1 -54.999996,-55 V 85.450581 a 55,55 135 0 1 54.999996,-55 z"
       transform="matrix(1.1130091,0,0,1.0125454,-64.656884,14.042403)" />
    <path
       style="fill:#00ddff;fill-opacity:0;stroke:#ffffff;stroke-width:0.99313;stroke-linecap:round;stroke-linejoin:miter;stroke-miterlimit:100;stroke-dasharray:none;stroke-opacity:1"
       id="rect1-2"
       width="383.73041"
       height="417.01834"
       x="96.233864"
       y="30.450581"
       sodipodi:type="rect"
       transform="matrix(1.1130091,0,0,1.0125454,-64.656884,14.042403)"
       d="m 151.23386,30.450581 h 273.73041 a 55,55 45 0 1 55,55 V 392.46892 a 55,55 135 0 1 -55,55 H 151.23386 a 55,55 45 0 1 -54.999996,-55 V 85.450581 a 55,55 135 0 1 54.999996,-55 z"
       inkscape:path-effect="#path-effect1-4" />
  </g>
</svg>
